<?xml version="1.0" encoding="utf-8"?>
<!-- Generator: Adobe Illustrator 16.0.0, SVG Export Plug-In . SVG Version: 6.00 Build 0)  -->
<!DOCTYPE svg PUBLIC "-//W3C//DTD SVG 1.1//EN" "http://www.w3.org/Graphics/SVG/1.1/DTD/svg11.dtd">
<svg version="1.1" id="春分" xmlns="http://www.w3.org/2000/svg" xmlns:xlink="http://www.w3.org/1999/xlink" x="0px" y="0px"
	 width="200.014px" height="200.012px" viewBox="538 0 200.014 200.012" enable-background="new 538 0 200.014 200.012"
	 xml:space="preserve">
<path fill="#FFF9BD" d="M546.118,189.714l7.756-119.347l-7.112-52.334l54.55,15.345c0,0,32.229-8.345,73.194-0.595l56.095-14.75
	l-7.262,52l7.211,119.554L546.118,189.714z"/>
<polygon fill="#F4D3C1" points="553.653,70.781 546.485,17.97 590.933,49.72 "/>
<polygon fill="#424141" points="590.933,49.72 545.174,17.97 601.215,34.501 "/>
<polygon fill="#F4D3C1" points="721.675,70.303 729.778,17.97 685.058,49.626 "/>
<polygon fill="#424141" points="685.058,49.626 729.778,18.72 673.652,34.189 "/>
<path fill="none" stroke="#424141" stroke-width="2.6013" stroke-miterlimit="10" d="M545.299,189.651l7.919-119.348l-7.278-52.333
	l55.183,15.344c0,0,31.705-8,72.674-0.25l55.982-15.094l-7.262,52l8.323,119.683H545.299V189.651z"/>
<path fill="none" stroke="#000000" stroke-width="2.5438" stroke-miterlimit="10" d="M593.792,30.933"/>
<path fill="#424141" d="M644.048,152.927c-1.568,2.148-3.431,5.666-7.656,5.666c-4.229,0-6.316-3.717-7.655-5.666
	c-1.304-1.896,3.427-1.754,7.655-1.754C640.618,151.173,645.421,151.044,644.048,152.927z"/>
<g>
	<path fill="#424141" d="M636.4,49.72c0,0-2.334,20.667-7.334,23c0,0,7.335,17.5,7.334,28.833V49.72z"/>
	<path fill="#424141" d="M636.4,49.387c0,0,2.334,20.666,7.334,23c0,0-7.335,17.499-7.334,28.833V49.387z"/>
</g>
</svg>
