<?xml version="1.0" encoding="utf-8"?>
<!-- Generator: Adobe Illustrator 16.0.0, SVG Export Plug-In . SVG Version: 6.00 Build 0)  -->
<!DOCTYPE svg PUBLIC "-//W3C//DTD SVG 1.1//EN" "http://www.w3.org/Graphics/SVG/1.1/DTD/svg11.dtd">
<svg version="1.1" id="春分" xmlns="http://www.w3.org/2000/svg" xmlns:xlink="http://www.w3.org/1999/xlink" x="0px" y="0px"
	 width="200.014px" height="200.012px" viewBox="538 238 200.014 200.012" enable-background="new 538 238 200.014 200.012"
	 xml:space="preserve">
<path fill="#F4D556" d="M547.11,430.235l3.47-98.102l-7.411-83.292l34.27,11.318c0,0,59.832-6.032,116.596,1.291l40.827-12.609
	l-7.952,82.664l3.371,98.728l-183.192,1.332L547.11,430.235z"/>
<path fill="#322F75" d="M273.06,434.496l5.853-126.313l0.728-64.75l62.772,39c0,0,15.25-6.125,48.749,0l61.396-39l0.479,65
	l5.396,126.063H273.06z"/>
<path fill="#F4D556" d="M382.029,308.508c0,8.445-6.847,15.293-15.292,15.293s-15.292-6.848-15.292-15.293
	c0-1.861,0.342-2.699,0.965-2.873c2.201-0.607,7.913,7.066,14.494,7.066C375.351,312.703,382.029,300.064,382.029,308.508z"/>
<path fill="#FFDE52" d="M7.052,433.188l7.695-126.467l-1.117-64.6l51.942,40.547c0,0,28.388-7.742,69.353,0.453l51.625-41
	l-2.278,64.496l8.153,126.568L7.052,433.188L7.052,433.188z"/>
<path fill="#FFF9BD" d="M546.118,189.714l7.756-119.347l-7.112-52.334l54.55,15.345c0,0,32.229-8.345,73.194-0.595l56.095-14.75
	l-7.262,52l7.211,119.554L546.118,189.714z"/>
<g>
	<path fill="#F4F1E9" d="M7.13,185.84L17.151,7.547l44.97,22.5c0,0,31.625-7.292,72.583,0.083L179.72,8.587l11.838,176.966
		L7.13,185.84z"/>
	<path fill="#E58B48" d="M62.036,32.891v47.906l72.854-0.063V32.359C134.893,32.359,100.646,23.641,62.036,32.891z"/>
	<path fill="#979495" d="M97.286,28.047v52.75l37.604-0.063V31.092C134.893,31.092,119.671,28.297,97.286,28.047z"/>
	<path fill="none" stroke="#726A6D" stroke-width="2.5438" stroke-miterlimit="10" d="M7.13,187.34L18.056,9.297l44.063,22.25
		c0,0,31.625-7.292,72.583,0.083l44.563-22.074l12.291,177.496L7.13,187.34z"/>
	<path fill="none" stroke="#000000" stroke-width="2.5438" stroke-miterlimit="10" d="M55.62,28.463"/>
	<g>
		<path fill="#726962" d="M53.757,99.457c0,0-7.009-12.356-8.164-17.444C44.437,76.924,30.972,84.951,53.757,99.457z"/>
		<path fill="#726962" d="M50.017,108.422c0,0-9.438-10.621-11.629-15.354C36.194,88.334,24.704,98.994,50.017,108.422z"/>
		<path fill="#726962" d="M47.116,114.889c0,0-12.984-5.767-16.941-9.166C26.22,102.32,20.171,116.781,47.116,114.889z"/>
	</g>
	<g>
		<path fill="#726962" d="M48.014,136.057c0,0-13.975,2.563-19.159,1.979C23.67,137.455,26.826,152.811,48.014,136.057z"/>
		<path fill="#726962" d="M49.586,141.73c0,0-9.711,10.371-14.225,12.987C30.849,157.339,42.522,167.802,49.586,141.73z"/>
	</g>
	<g>
		<path fill="#726962" d="M150.598,136.057c0,0,13.973,2.563,19.157,1.979C174.941,137.455,171.784,152.811,150.598,136.057z"/>
		<path fill="#726962" d="M149.023,141.73c0,0,9.711,10.371,14.226,12.987C167.762,157.339,156.088,167.802,149.023,141.73z"/>
	</g>
	<g>
		<path fill="#726962" d="M144.854,99.457c0,0,7.01-12.356,8.164-17.444C154.174,76.924,167.639,84.951,144.854,99.457z"/>
		<path fill="#726962" d="M148.594,108.422c0,0,9.438-10.621,11.63-15.354C162.416,88.334,173.906,98.994,148.594,108.422z"/>
		<path fill="#726962" d="M151.494,114.889c0,0,12.983-5.767,16.94-9.166C172.391,102.32,178.439,116.781,151.494,114.889z"/>
	</g>
	<polygon fill="#F20F4B" points="10.954,164.922 12.287,164.922 190.27,164.922 191.557,187.052 7.13,187.052 8.288,164.922 	"/>
	<g>
		<circle fill="#EFAF11" cx="98.464" cy="174.411" r="18.042"/>
		<circle fill="#726962" cx="98.464" cy="168.464" r="3.542"/>
		<line fill="none" stroke="#716862" stroke-miterlimit="10" x1="98.464" y1="170.797" x2="98.464" y2="188.297"/>
	</g>
</g>
<path fill="#F6F5FF" d="M271.743,188.111l11.889-176.314l42.984,21.512c0,0,32.263-7.925,73.229-0.174l44.529-19.115l11.801,173.966
	L271.743,188.111z"/>
<path fill="none" stroke="#726A6D" stroke-width="2.6013" stroke-miterlimit="10" d="M271.747,189.682l11.885-177.884l42.984,21.512
	c0,0,31.656-7.684,72.625,0.066l45.055-20.516l14.836,176.693L271.747,189.682z"/>
<path fill="none" stroke="#000000" stroke-width="2.5438" stroke-miterlimit="10" d="M320.24,30.963"/>
<polygon fill="#F4D3C1" points="289.767,22.049 329.168,42.074 285.485,70.36 "/>
<polygon fill="#F4D3C1" points="553.653,70.781 546.485,17.97 590.933,49.72 "/>
<polygon fill="#F46D2A" points="285.537,303.379 283.6,249.818 328.954,281.236 "/>
<polygon fill="#FFF9BD" points="551.244,295.331 547.786,255.438 579.775,265.812 "/>
<polygon fill="#FFF9BD" points="696.846,265.812 728.836,255.438 725.378,295.331 "/>
<polygon fill="#F46D2A" points="403.764,281.236 449.119,249.818 447.181,303.379 "/>
<polygon fill="#424141" points="590.933,49.72 545.174,17.97 601.215,34.501 "/>
<polygon fill="#F4D3C1" points="721.675,70.303 729.778,17.97 685.058,49.626 "/>
<polygon fill="#424141" points="685.058,49.626 729.778,18.72 673.652,34.189 "/>
<polygon fill="#F4D3C1" points="438.806,21.999 399.152,41.516 442.47,70.36 "/>
<g>
	<path fill="#726A6D" d="M331.052,79.25c0,0-2.75,10.167,8,9.667c0,0,9.753-2.479,2.836-13.813c0,0-8.252-9.188-27.919-0.438
		C313.969,74.667,333.469,72.917,331.052,79.25z"/>
	<path fill="#726A6D" d="M394.618,79.25c0,0,2.75,10.167-8,9.667c0,0-9.753-2.479-2.836-13.813c0,0,8.252-9.188,27.919-0.438
		C411.701,74.667,392.201,72.917,394.618,79.25z"/>
</g>
<path fill="#726A6D" d="M373.585,128.697c0,5.229-4.813,9.471-10.75,9.471c-5.938,0-10.75-4.24-10.75-9.471s4.813-4.529,10.75-4.529
	C368.771,124.168,373.585,123.467,373.585,128.697z"/>
<path fill="#3F3F3F" d="M107.297,366.389c0,3.322-3.06,6.021-6.833,6.021c-3.774,0-6.834-2.695-6.834-6.021s3.06-2.879,6.834-2.879
	C104.238,363.512,107.297,363.066,107.297,366.389z"/>
<path fill="none" stroke="#424141" stroke-width="2.6013" stroke-miterlimit="10" d="M545.299,189.651l7.919-119.348l-7.278-52.333
	l55.183,15.344c0,0,31.705-8,72.674-0.25l55.982-15.094l-7.262,52l8.323,119.683H545.299V189.651z"/>
<path fill="none" stroke="#000000" stroke-width="2.5438" stroke-miterlimit="10" d="M593.792,30.933"/>
<path fill="#424141" d="M644.048,152.927c-1.568,2.148-3.431,5.666-7.656,5.666c-4.229,0-6.316-3.717-7.655-5.666
	c-1.304-1.896,3.427-1.754,7.655-1.754C640.618,151.173,645.421,151.044,644.048,152.927z"/>
<g>
	<path fill="none" stroke="#726A6D" stroke-width="1.1365" stroke-miterlimit="10" d="M88.656,115.988c0,0,19.419,5.133,0,15.137"/>
	<path fill="none" stroke="#726A6D" stroke-width="1.1365" stroke-miterlimit="10" d="M105.916,115.988c0,0-19.418,5.133,0,15.137"
		/>
</g>
<g>
	<path fill="#424141" d="M636.4,49.72c0,0-2.334,20.667-7.334,23c0,0,7.335,17.5,7.334,28.833V49.72z"/>
	<path fill="#424141" d="M636.4,49.387c0,0,2.334,20.666,7.334,23c0,0-7.335,17.499-7.334,28.833V49.387z"/>
</g>
<path fill="none" stroke="#424141" stroke-width="2.6751" stroke-miterlimit="10" d="M7.589,433.891l7.694-126.467l-1.115-64.598
	l51.942,40.547c0,0,28.388-7.742,69.353,0.453l51.625-41l-2.278,64.498l8.153,126.566H7.589L7.589,433.891z"/>
<path fill="none" stroke="#000000" stroke-width="2.5438" stroke-miterlimit="10" d="M56.084,264.777"/>
<ellipse opacity="0.59" fill="#F20F4B" enable-background="new    " cx="41.505" cy="367.201" rx="22.583" ry="11.875"/>
<ellipse opacity="0.59" fill="#F20F4B" enable-background="new    " cx="159.423" cy="368.701" rx="22.583" ry="11.875"/>
<path fill="#3F3F3F" d="M15.796,290.828c0,0,9.438-18.688,33.804-20.344l-35.432-27.658L15.796,290.828z"/>
<path fill="#3F3F3F" d="M185.602,291.744c0,0-12.72-16.629-37.082-18.287l38.711-30.213L185.602,291.744z"/>
<path fill="#EF84AF" d="M372.58,376.596c0,3.322-3.059,6.02-6.832,6.02c-3.775,0-6.834-2.693-6.834-6.02s3.059-2.879,6.834-2.879
	C369.522,373.717,372.58,373.271,372.58,376.596z"/>
<g>
	<polygon fill="#898385" points="577.643,294.507 629.137,307.41 615,314.723 635.275,322.839 635.275,256.661 622.458,257.335 	"/>
	<polygon fill="#898385" points="692.906,294.507 641.412,307.41 655.553,314.723 635.275,322.839 635.275,256.661 648.092,257.335 
			"/>
</g>
<polygon fill="#898385" points="547.786,311.38 570.512,310.664 570.512,368.429 549.761,364.021 549.927,335.451 "/>
<polygon fill="#898385" points="728.836,311.38 706.108,310.664 706.108,368.429 726.86,364.021 726.694,335.451 "/>
<path fill="none" stroke="#262A3F" stroke-width="2.6751" stroke-miterlimit="10" d="M273.06,433.633l5.853-126.314l0.728-64.75
	l62.772,39c0,0,15.25-6.125,48.749,0l61.396-39l0.479,65l5.396,126.064H273.06z"/>
<path fill="none" stroke="#262A3F" stroke-width="3.0232" stroke-miterlimit="10" d="M546.286,429.479l3.47-98.103l-7.41-83.292
	l35.092,11.599c0,0,59.832-6.03,116.596,1.293l40.003-12.892l-7.724,85.458l3.143,95.937l-183.109,1.53L546.286,429.479z"/>
<path fill="none" stroke="#000000" stroke-width="2.5438" stroke-miterlimit="10" d="M321.554,264.52"/>
<g>
	
		<line fill="none" stroke="#F4D556" stroke-width="1.0815" stroke-miterlimit="10" x1="339.493" y1="371.717" x2="270.144" y2="362.535"/>
	
		<line fill="none" stroke="#F4D556" stroke-width="1.0815" stroke-miterlimit="10" x1="338.566" y1="378.426" x2="268.392" y2="377.885"/>
	
		<line fill="none" stroke="#F4D556" stroke-width="1.0815" stroke-miterlimit="10" x1="339.655" y1="386.143" x2="269.982" y2="393.309"/>
</g>
<g>
	
		<line fill="none" stroke="#F4D556" stroke-width="1.0815" stroke-miterlimit="10" x1="391.17" y1="371.717" x2="460.519" y2="362.535"/>
	
		<line fill="none" stroke="#F4D556" stroke-width="1.0815" stroke-miterlimit="10" x1="392.097" y1="378.426" x2="462.271" y2="377.885"/>
	
		<line fill="none" stroke="#F4D556" stroke-width="1.0815" stroke-miterlimit="10" x1="391.008" y1="386.143" x2="460.68" y2="393.309"/>
</g>
<polyline fill="#FFF9BD" points="547.786,429.414 615.816,363.963 657.316,363.963 727.971,428.28 "/>
<g>
	<path fill="#726A6D" d="M647.937,354.469c0,5.65-5.374,10.233-12.002,10.233c-6.63,0-12.001-4.581-12.001-10.233
		c0-5.651,5.372-4.895,12.001-4.895C642.563,349.574,647.937,348.817,647.937,354.469z"/>
	
		<line fill="none" stroke="#726A6D" stroke-width="1.0268" stroke-miterlimit="10" x1="635.934" y1="361.889" x2="635.934" y2="381.104"/>
</g>
<path fill="#726A6D" d="M577.436,259.684"/>
<ellipse fill="#D81261" cx="635.935" cy="282.521" rx="19.265" ry="18.902"/>
<path opacity="0.5" fill="#FFFFFF" enable-background="new    " d="M648.775,274.645c0.454,2.452,0.141,6.673-2.179,6.673
	c-2.316,0-5.399-4.33-6.213-6.673c-0.735-2.121-0.962-5.954,1.354-5.954C644.056,268.69,648.222,271.647,648.775,274.645z"/>
</svg>
