<?xml version="1.0" encoding="utf-8"?>
<!-- Generator: Adobe Illustrator 16.0.0, SVG Export Plug-In . SVG Version: 6.00 Build 0)  -->
<!DOCTYPE svg PUBLIC "-//W3C//DTD SVG 1.1//EN" "http://www.w3.org/Graphics/SVG/1.1/DTD/svg11.dtd">
<svg version="1.1" id="春分" xmlns="http://www.w3.org/2000/svg" xmlns:xlink="http://www.w3.org/1999/xlink" x="0px" y="0px"
	 width="200.014px" height="200.012px" viewBox="0 238 200.014 200.012" enable-background="new 0 238 200.014 200.012"
	 xml:space="preserve">
<path fill="#FFDE52" d="M7.052,433.188l7.695-126.467l-1.117-64.6l51.942,40.547c0,0,28.388-7.742,69.353,0.453l51.625-41
	l-2.278,64.496l8.153,126.568L7.052,433.188L7.052,433.188z"/>
<path fill="#3F3F3F" d="M107.297,366.389c0,3.322-3.06,6.021-6.833,6.021c-3.774,0-6.834-2.695-6.834-6.021s3.06-2.879,6.834-2.879
	C104.238,363.512,107.297,363.066,107.297,366.389z"/>
<path fill="none" stroke="#424141" stroke-width="2.6751" stroke-miterlimit="10" d="M7.589,433.891l7.694-126.467l-1.115-64.598
	l51.942,40.547c0,0,28.388-7.742,69.353,0.453l51.625-41l-2.278,64.498l8.153,126.566H7.589L7.589,433.891z"/>
<path fill="none" stroke="#000000" stroke-width="2.5438" stroke-miterlimit="10" d="M56.084,264.777"/>
<ellipse opacity="0.59" fill="#F20F4B" enable-background="new    " cx="41.505" cy="367.201" rx="22.583" ry="11.875"/>
<ellipse opacity="0.59" fill="#F20F4B" enable-background="new    " cx="159.423" cy="368.701" rx="22.583" ry="11.875"/>
<path fill="#3F3F3F" d="M15.796,290.828c0,0,9.438-18.688,33.804-20.344l-35.432-27.658L15.796,290.828z"/>
<path fill="#3F3F3F" d="M185.602,291.744c0,0-12.72-16.629-37.082-18.287l38.711-30.213L185.602,291.744z"/>
</svg>
