<?xml version="1.0" encoding="utf-8"?>
<!-- Generator: Adobe Illustrator 16.0.0, SVG Export Plug-In . SVG Version: 6.00 Build 0)  -->
<!DOCTYPE svg PUBLIC "-//W3C//DTD SVG 1.1//EN" "http://www.w3.org/Graphics/SVG/1.1/DTD/svg11.dtd">
<svg version="1.1" id="春分" xmlns="http://www.w3.org/2000/svg" xmlns:xlink="http://www.w3.org/1999/xlink" x="0px" y="0px"
	 width="200.014px" height="200.012px" viewBox="266 0 200.014 200.012" enable-background="new 266 0 200.014 200.012"
	 xml:space="preserve">
<path fill="#F6F5FF" d="M271.743,188.111l11.889-176.314l42.984,21.512c0,0,32.263-7.925,73.229-0.174l44.529-19.115l11.801,173.966
	L271.743,188.111z"/>
<path fill="none" stroke="#726A6D" stroke-width="2.6013" stroke-miterlimit="10" d="M271.747,189.682l11.885-177.884l42.984,21.512
	c0,0,31.656-7.684,72.625,0.066l45.055-20.516l14.836,176.693L271.747,189.682z"/>
<path fill="none" stroke="#000000" stroke-width="2.5438" stroke-miterlimit="10" d="M320.24,30.963"/>
<polygon fill="#F4D3C1" points="289.767,22.049 329.168,42.074 285.485,70.36 "/>
<polygon fill="#F4D3C1" points="438.806,21.999 399.152,41.516 442.47,70.36 "/>
<g>
	<path fill="#726A6D" d="M331.052,79.25c0,0-2.75,10.167,8,9.667c0,0,9.753-2.479,2.836-13.813c0,0-8.252-9.188-27.919-0.438
		C313.969,74.667,333.469,72.917,331.052,79.25z"/>
	<path fill="#726A6D" d="M394.618,79.25c0,0,2.75,10.167-8,9.667c0,0-9.753-2.479-2.836-13.813c0,0,8.252-9.188,27.919-0.438
		C411.701,74.667,392.201,72.917,394.618,79.25z"/>
</g>
<path fill="#726A6D" d="M373.585,128.697c0,5.229-4.813,9.471-10.75,9.471c-5.938,0-10.75-4.24-10.75-9.471s4.813-4.529,10.75-4.529
	C368.771,124.168,373.585,123.467,373.585,128.697z"/>
</svg>
