<?xml version="1.0" encoding="utf-8"?>
<!-- Generator: Adobe Illustrator 16.0.0, SVG Export Plug-In . SVG Version: 6.00 Build 0)  -->
<!DOCTYPE svg PUBLIC "-//W3C//DTD SVG 1.1//EN" "http://www.w3.org/Graphics/SVG/1.1/DTD/svg11.dtd">
<svg version="1.1" id="春分" xmlns="http://www.w3.org/2000/svg" xmlns:xlink="http://www.w3.org/1999/xlink" x="0px" y="0px"
	 width="200.014px" height="200.012px" viewBox="266 238 200.014 200.012" enable-background="new 266 238 200.014 200.012"
	 xml:space="preserve">
<path fill="#322F75" d="M273.06,434.496l5.853-126.313l0.728-64.75l62.772,39c0,0,15.25-6.125,48.749,0l61.396-39l0.479,65
	l5.396,126.063H273.06z"/>
<path fill="#F4D556" d="M382.029,308.508c0,8.445-6.847,15.293-15.292,15.293s-15.292-6.848-15.292-15.293
	c0-1.861,0.342-2.699,0.965-2.873c2.201-0.607,7.913,7.066,14.494,7.066C375.351,312.703,382.029,300.064,382.029,308.508z"/>
<polygon fill="#F46D2A" points="285.537,303.379 283.6,249.818 328.954,281.236 "/>
<polygon fill="#F46D2A" points="403.764,281.236 449.119,249.818 447.181,303.379 "/>
<path fill="#EF84AF" d="M372.58,376.596c0,3.322-3.059,6.02-6.832,6.02c-3.775,0-6.834-2.693-6.834-6.02s3.059-2.879,6.834-2.879
	C369.522,373.717,372.58,373.271,372.58,376.596z"/>
<path fill="none" stroke="#262A3F" stroke-width="2.6751" stroke-miterlimit="10" d="M273.06,433.633l5.853-126.314l0.728-64.75
	l62.772,39c0,0,15.25-6.125,48.749,0l61.396-39l0.479,65l5.396,126.064H273.06z"/>
<path fill="none" stroke="#000000" stroke-width="2.5438" stroke-miterlimit="10" d="M321.554,264.52"/>
<g>
	
		<line fill="none" stroke="#F4D556" stroke-width="1.0815" stroke-miterlimit="10" x1="339.493" y1="371.717" x2="270.144" y2="362.535"/>
	
		<line fill="none" stroke="#F4D556" stroke-width="1.0815" stroke-miterlimit="10" x1="338.566" y1="378.426" x2="268.392" y2="377.885"/>
	
		<line fill="none" stroke="#F4D556" stroke-width="1.0815" stroke-miterlimit="10" x1="339.655" y1="386.143" x2="269.982" y2="393.309"/>
</g>
<g>
	
		<line fill="none" stroke="#F4D556" stroke-width="1.0815" stroke-miterlimit="10" x1="391.17" y1="371.717" x2="460.519" y2="362.535"/>
	
		<line fill="none" stroke="#F4D556" stroke-width="1.0815" stroke-miterlimit="10" x1="392.097" y1="378.426" x2="462.271" y2="377.885"/>
	
		<line fill="none" stroke="#F4D556" stroke-width="1.0815" stroke-miterlimit="10" x1="391.008" y1="386.143" x2="460.68" y2="393.309"/>
</g>
</svg>
