<?xml version="1.0" encoding="utf-8"?>
<!-- Generator: Adobe Illustrator 16.0.0, SVG Export Plug-In . SVG Version: 6.00 Build 0)  -->
<!DOCTYPE svg PUBLIC "-//W3C//DTD SVG 1.1//EN" "http://www.w3.org/Graphics/SVG/1.1/DTD/svg11.dtd">
<svg version="1.1" id="春分" xmlns="http://www.w3.org/2000/svg" xmlns:xlink="http://www.w3.org/1999/xlink" x="0px" y="0px"
	 width="200.014px" height="200.012px" viewBox="0 0 200.014 200.012" enable-background="new 0 0 200.014 200.012"
	 xml:space="preserve">
<g>
	<path fill="#F4F1E9" d="M7.13,185.84L17.151,7.547l44.97,22.5c0,0,31.625-7.292,72.583,0.083L179.72,8.587l11.838,176.966
		L7.13,185.84z"/>
	<path fill="#E58B48" d="M62.036,32.891v47.906l72.854-0.063V32.359C134.893,32.359,100.646,23.641,62.036,32.891z"/>
	<path fill="#979495" d="M97.286,28.047v52.75l37.604-0.063V31.092C134.893,31.092,119.671,28.297,97.286,28.047z"/>
	<path fill="none" stroke="#726A6D" stroke-width="2.5438" stroke-miterlimit="10" d="M7.13,187.34L18.056,9.297l44.063,22.25
		c0,0,31.625-7.292,72.583,0.083l44.563-22.074l12.291,177.496L7.13,187.34z"/>
	<path fill="none" stroke="#000000" stroke-width="2.5438" stroke-miterlimit="10" d="M55.62,28.463"/>
	<g>
		<path fill="#726962" d="M53.757,99.457c0,0-7.009-12.356-8.164-17.444C44.437,76.924,30.972,84.951,53.757,99.457z"/>
		<path fill="#726962" d="M50.017,108.422c0,0-9.438-10.621-11.629-15.354C36.194,88.334,24.704,98.994,50.017,108.422z"/>
		<path fill="#726962" d="M47.116,114.889c0,0-12.984-5.767-16.941-9.166C26.22,102.32,20.171,116.781,47.116,114.889z"/>
	</g>
	<g>
		<path fill="#726962" d="M48.014,136.057c0,0-13.975,2.563-19.159,1.979C23.67,137.455,26.826,152.811,48.014,136.057z"/>
		<path fill="#726962" d="M49.586,141.73c0,0-9.711,10.371-14.225,12.987C30.849,157.339,42.522,167.802,49.586,141.73z"/>
	</g>
	<g>
		<path fill="#726962" d="M150.598,136.057c0,0,13.973,2.563,19.157,1.979C174.941,137.455,171.784,152.811,150.598,136.057z"/>
		<path fill="#726962" d="M149.023,141.73c0,0,9.711,10.371,14.226,12.987C167.762,157.339,156.088,167.802,149.023,141.73z"/>
	</g>
	<g>
		<path fill="#726962" d="M144.854,99.457c0,0,7.01-12.356,8.164-17.444C154.174,76.924,167.639,84.951,144.854,99.457z"/>
		<path fill="#726962" d="M148.594,108.422c0,0,9.438-10.621,11.63-15.354C162.416,88.334,173.906,98.994,148.594,108.422z"/>
		<path fill="#726962" d="M151.494,114.889c0,0,12.983-5.767,16.94-9.166C172.391,102.32,178.439,116.781,151.494,114.889z"/>
	</g>
	<polygon fill="#F20F4B" points="10.954,164.922 12.287,164.922 190.27,164.922 191.557,187.052 7.13,187.052 8.288,164.922 	"/>
	<g>
		<circle fill="#EFAF11" cx="98.464" cy="174.411" r="18.042"/>
		<circle fill="#726962" cx="98.464" cy="168.464" r="3.542"/>
		<line fill="none" stroke="#716862" stroke-miterlimit="10" x1="98.464" y1="170.797" x2="98.464" y2="188.297"/>
	</g>
</g>
<g>
	<path fill="none" stroke="#726A6D" stroke-width="1.1365" stroke-miterlimit="10" d="M88.656,115.988c0,0,19.419,5.133,0,15.137"/>
	<path fill="none" stroke="#726A6D" stroke-width="1.1365" stroke-miterlimit="10" d="M105.916,115.988c0,0-19.418,5.133,0,15.137"
		/>
</g>
</svg>
