<?xml version="1.0" encoding="utf-8"?>
<!-- Generator: Adobe Illustrator 16.0.0, SVG Export Plug-In . SVG Version: 6.00 Build 0)  -->
<!DOCTYPE svg PUBLIC "-//W3C//DTD SVG 1.1//EN" "http://www.w3.org/Graphics/SVG/1.1/DTD/svg11.dtd">
<svg version="1.1" id="春分" xmlns="http://www.w3.org/2000/svg" xmlns:xlink="http://www.w3.org/1999/xlink" x="0px" y="0px"
	 width="200.014px" height="200.012px" viewBox="486 235.488 200.014 200.012" enable-background="new 486 235.488 200.014 200.012"
	 xml:space="preserve">
<path fill="#E8E097" d="M509.784,282.933c0,0,5.182,14.959,13.149,18.875c7.969,3.916,2.409-7.388,2.409-7.388L509.784,282.933z"/>
<path fill="#E8E097" d="M671.386,287.771c0,0-9.698,14.854-18.101,17.722c-8.403,2.867-1.447-7.635-1.447-7.635L671.386,287.771z"/>
<path fill="#F8B66A" d="M587.974,407.099c7.563,0,48.321-2.513,64.963-32.013c16.643-29.498-1.944-76.646-1.944-76.646
	s0.049-24.269-7.514-28.174c0,0-35.926,11.781-41.977,24.642c0,0-5.295-2.804-13.615-2.774c-8.321,0.033-13.615,2.774-13.615,2.774
	c-6.051-12.86-40.301-26.112-40.301-26.112c-7.563,3.906-11.56,29.426-11.56,29.426s-16.218,47.366,0.424,76.864
	c16.642,29.5,57.196,32.013,64.76,32.013 M574.525,296.8"/>
<g>
	<path fill="#FCF69E" d="M587.805,372.728c0,0,75.019-47.634,70.593-30.837c-4.555,17.272-36.465,20.623-36.465,20.623
		s30.885-17.892,35.647-5.413c5.656,14.821-20.67,48.602-70.858,49.998c-6.91,0.191-41.537-13.659-2.148,0
		c0,0-55.903-6.329-63.123-37.229c-7.22-30.898,27.044-4.492,27.044-4.492s-23.496-7.116-29.404-23.487
		C513.18,325.52,587.805,372.728,587.805,372.728z"/>
	<path fill="#FCF69E" d="M548.231,396.879l2.854,3.346c0,0,20.097,4.632,27.997,6.191c7.898,1.561,7.084-2.454,7.084-2.454
		L548.231,396.879z"/>
</g>
<path fill="none" stroke="#F5A932" stroke-width="1.4753" stroke-miterlimit="10" d="M588.185,407.099
	c7.563,0,48.321-2.513,64.963-32.013c16.642-29.498-1.944-76.646-1.944-76.646s0.049-24.269-7.514-28.174
	c0,0-35.927,11.781-41.977,24.642c0,0-5.295-2.804-13.616-2.774c-8.32,0.033-13.614,2.774-13.614,2.774
	c-6.052-12.86-40.301-26.112-40.301-26.112c-7.563,3.906-11.561,29.426-11.561,29.426s-16.218,47.366,0.425,76.864
	c16.642,29.5,58.217,32.007,65.779,32.007 M574.736,296.8"/>
<path fill="#38302F" d="M579.842,366.752c0.64-1.259,13.621-1.217,15.135,0c1.514,1.216-4.753,7.973-7.723,8.057
	C584.286,374.893,579.2,368.011,579.842,366.752z"/>
<g>
	<path fill="none" stroke="#F5A932" stroke-width="1.4753" stroke-miterlimit="10" d="M551.108,366.981
		c0,0-35.63-10.723-57.617-8.409"/>
	<path fill="none" stroke="#F5A932" stroke-width="1.4753" stroke-miterlimit="10" d="M551.353,376.322c0,0-36.8-1.824-57.862,5.778
		"/>
	<path fill="none" stroke="#F5A932" stroke-width="1.4753" stroke-miterlimit="10" d="M549.853,371.922
		c0,0-31.653-6.627-50.301-1.844"/>
</g>
<g>
	<path fill="none" stroke="#F5A932" stroke-width="1.4753" stroke-miterlimit="10" d="M619.468,366.981
		c0,0,35.63-10.723,57.616-8.409"/>
	<path fill="none" stroke="#F5A932" stroke-width="1.4753" stroke-miterlimit="10" d="M619.22,376.322
		c0,0,36.801-1.824,57.863,5.778"/>
	<path fill="none" stroke="#F5A932" stroke-width="1.4753" stroke-miterlimit="10" d="M620.722,371.922
		c0,0,31.653-6.627,50.299-1.844"/>
</g>
<g>
	<path fill="none" stroke="#38302F" stroke-width="1.1118" stroke-miterlimit="10" d="M582.198,369.326c0,0,9.952,4.811-0.004,9.454
		"/>
	<path fill="none" stroke="#38302F" stroke-width="1.1118" stroke-miterlimit="10" d="M592.799,369.328c0,0-9.953,4.807-0.003,9.454
		"/>
</g>
<path fill="#FCDAB9" d="M532.501,276.152c0,0-4.203,18.705-2.312,22.489c0,0,28.951-6.307,32.972-3.153
	C563.161,295.488,559.825,285.61,532.501,276.152z"/>
<path fill="#FCDAB9" d="M642.339,275.417c0,0,3.372,18.875,1.315,22.57c0,0-28.644-7.578-32.8-4.605
	C610.854,293.382,614.621,283.66,642.339,275.417z"/>
<path fill="none" stroke="#231815" stroke-width="1.4753" stroke-miterlimit="10" d="M590.739,411.975"/>
<path fill="#FFFFFF" d="M537.423,333.268c0,0,32.368-8.467,30.313,19.391c0,0-10.711,6.957-21.762,1.904
	C534.923,349.512,535.176,337.366,537.423,333.268z"/>
<path fill="#FFFFFF" d="M638.786,332.558c0,0-32.368-8.465-30.312,19.392c0,0,10.71,6.955,21.761,1.903
	C641.288,348.802,641.033,336.657,638.786,332.558z"/>
<path fill="#20A139" d="M567.828,349.702c-1.654,5.626-9.007,7.62-15.708,5.866c-6.705-1.756-10.799-7.74-9.143-13.369
	c1.654-5.63,8.431-8.77,15.134-7.016C564.812,336.939,569.483,344.073,567.828,349.702z"/>
<path fill="none" stroke="#38302F" stroke-width="1.1118" stroke-miterlimit="10" d="M537.423,333.583
	c0,0,32.368-8.467,30.313,19.39c0,0-10.711,6.956-21.762,1.905S535.176,337.683,537.423,333.583z"/>
<ellipse transform="matrix(0.9636 0.2672 -0.2672 0.9636 112.581 -135.8016)" fill="#FFFFFF" cx="555.245" cy="345.738" rx="1.438" ry="1.23"/>
<path fill="#20A139" d="M608.232,349.199c1.587,5.711,8.92,7.834,15.647,6.171c6.73-1.666,10.898-7.644,9.312-13.35
	c-1.587-5.711-8.33-8.988-15.06-7.325C611.404,336.362,606.643,343.49,608.232,349.199z"/>
<path fill="none" stroke="#38302F" stroke-width="1.1118" stroke-miterlimit="10" d="M638.85,333.396c0,0-32.29-9.09-30.553,19.067
	c0,0,10.638,7.205,21.754,2.287C641.169,349.837,641.053,337.573,638.85,333.396z"/>
<ellipse transform="matrix(-0.9672 0.2542 -0.2542 -0.9672 1309.1528 521.582)" fill="#FFFFFF" cx="620.88" cy="345.369" rx="1.439" ry="1.242"/>
<path fill="#FCF69E" d="M509.784,282.933c0,0,47.467,23.241,161.603,4.838C671.386,287.771,576.503,347.733,509.784,282.933z"/>
<g>
	<path fill="#FCF69E" d="M620.151,253.597c-2.875-15.449-57.725-21.25-66.901,0c-3.237,4.658,0,34.202,0,34.202
		c0,7.265,5.645,13.153,12.605,13.153h41.689c6.963,0,12.606-5.889,12.606-13.153C620.151,287.799,623.026,269.044,620.151,253.597z
		"/>
	<path fill="#CEC893" d="M552.468,279.17l68.6-0.11c0,0-0.577,14.522-2.012,14.792c-1.434,0.27-63.947-0.722-64.762-0.81
		C553.479,292.952,552.758,283.35,552.468,279.17z"/>
</g>
<g>
	<g>
		<path fill="#93A2BF" d="M583.387,405.321c0,0-24.685-11.796-27.633-9.657c-2.952,2.139-5.859,30.387-1.221,34.806
			c4.641,4.411,30.01-11.627,30.01-11.627"/>
		<g>
			<path fill="#6F83A3" d="M582.329,411.982c0,0-11.774-2.516-13.145-1.352C567.815,411.796,582.329,411.982,582.329,411.982z"/>
			<path fill="#6F83A3" d="M582.329,413.018c0,0-15.598,2.515-17.41,1.35S582.329,413.018,582.329,413.018z"/>
		</g>
	</g>
	<g>
		<path fill="#93A2BF" d="M591.465,419.436c0,0,26.796,15.441,31.543,10.917c4.746-4.521,1.124-32.697-1.999-34.765
			c-3.123-2.07-27.738,9.938-27.738,9.938"/>
		<g>
			<path fill="#6F83A3" d="M594.486,413.106c0,0,12.286-2.515,13.713-1.35C609.627,412.922,594.486,413.106,594.486,413.106z"/>
			<path fill="#6F83A3" d="M594.486,414.142c0,0,16.272,2.516,18.162,1.351C614.54,414.328,594.486,414.142,594.486,414.142z"/>
		</g>
	</g>
	<path fill="#6F83A3" d="M594.245,411.696c0,5.133,1.188,9.669-6.41,9.293c-7.927-0.393-6.71-4.16-6.71-9.293
		c0-5.134-0.911-7.485,6.56-7.461C596.715,404.265,594.245,406.563,594.245,411.696z"/>
</g>
</svg>
