<?xml version="1.0" encoding="utf-8"?>
<!-- Generator: Adobe Illustrator 16.0.0, SVG Export Plug-In . SVG Version: 6.00 Build 0)  -->
<!DOCTYPE svg PUBLIC "-//W3C//DTD SVG 1.1//EN" "http://www.w3.org/Graphics/SVG/1.1/DTD/svg11.dtd">
<svg version="1.1" id="春分" xmlns="http://www.w3.org/2000/svg" xmlns:xlink="http://www.w3.org/1999/xlink" x="0px" y="0px"
	 width="200.014px" height="200.012px" viewBox="0 0 200.014 200.012" enable-background="new 0 0 200.014 200.012"
	 xml:space="preserve">
<g>
	<path fill="#A09795" d="M101.177,196.955C-1.712,202.11,41.735,70.131,64.003,58.217c0,0,2.834-53.301,13.842-50.349
		c0,0,11.314,40.789,8.639,50.162c0,0,5.225-2.831,14.074-2.912"/>
	<path fill="#A09795" d="M99.481,196.955c102.526,0.147,59.443-126.825,37.176-138.738c0,0-2.833-53.302-13.844-50.349
		c0,0-11.313,40.789-8.638,50.161c0,0-5.224-2.83-14.073-2.911"/>
</g>
<path fill="#E2DBBF" d="M156.308,170.546c0,0-9.471-60.414-59.171-57.479c-45.328,2.678-54.094,57.31-54.094,57.31
	s11.498,28.255,55.33,26.579C116.995,196.244,144.055,192.869,156.308,170.546z"/>
<path fill="none" stroke="#5B4743" stroke-width="1.1784" stroke-miterlimit="10" d="M101.255,196.895
	C-1.635,202.05,41.811,70.071,64.079,58.157c0,0,2.834-53.301,13.844-50.349c0,0,11.313,40.789,8.638,50.162
	c0,0,5.225-2.831,14.075-2.912 M99.559,196.895c102.525,0.147,59.442-126.824,37.175-138.738c0,0-2.834-53.302-13.845-50.349
	c0,0-11.312,40.79-8.637,50.162c0,0-5.224-2.831-14.074-2.912"/>
<path fill="none" stroke="#231815" stroke-width="1.2347" stroke-miterlimit="10" d="M86.705,43.691"/>
<g>
	<path fill="none" stroke="#231815" stroke-width="1.2347" stroke-miterlimit="10" d="M51.452,110.236c0,0-7.047-4.375-14.074-5.954
		c-7.027-1.578-13.063,0.01-13.063,0.01"/>
	<path fill="none" stroke="#231815" stroke-width="1.3712" stroke-miterlimit="10" d="M52.71,116.686c0,0-9.239-3.908-18.054-5.019
		c-8.813-1.109-15.958,0.886-15.958,0.886"/>
	<path fill="none" stroke="#231815" stroke-width="1.2933" stroke-miterlimit="10" d="M50.915,121.655c0,0-8.863-1.651-16.707-0.685
		c-7.843,0.967-13.529,4.563-13.529,4.563"/>
</g>
<ellipse fill="#FFFFFF" cx="126.919" cy="91.426" rx="11.206" ry="11.196"/>
<g>
	<path fill="none" stroke="#231815" stroke-width="1.2347" stroke-miterlimit="10" d="M144.98,110.236c0,0,7.046-4.375,14.074-5.954
		c7.027-1.578,13.063,0.01,13.063,0.01"/>
	<path fill="none" stroke="#231815" stroke-width="1.3712" stroke-miterlimit="10" d="M143.721,116.686
		c0,0,9.239-3.908,18.053-5.019c8.814-1.109,15.96,0.886,15.96,0.886"/>
	<path fill="none" stroke="#231815" stroke-width="1.2933" stroke-miterlimit="10" d="M145.516,121.655
		c0,0,8.862-1.651,16.707-0.685c7.844,0.967,13.529,4.563,13.529,4.563"/>
</g>
<g>
	<ellipse fill="#FFFFFF" cx="73.43" cy="91.426" rx="11.206" ry="11.196"/>
	<g>
		<ellipse fill="#231815" cx="75.226" cy="90.981" rx="3.935" ry="5.992"/>
		<ellipse fill="#231815" cx="125.187" cy="90.981" rx="3.935" ry="5.992"/>
	</g>
</g>
<ellipse fill="#231815" cx="100.207" cy="101.077" rx="5.05" ry="2.506"/>
<g>
	
		<ellipse fill="none" stroke="#231815" stroke-width="1.2219" stroke-miterlimit="10" cx="79.344" cy="130.881" rx="7.664" ry="2.875"/>
	
		<ellipse fill="none" stroke="#231815" stroke-width="1.2219" stroke-miterlimit="10" cx="99.677" cy="130.881" rx="7.664" ry="2.875"/>
	
		<ellipse fill="none" stroke="#231815" stroke-width="1.2219" stroke-miterlimit="10" cx="120.009" cy="130.881" rx="7.664" ry="2.875"/>
</g>
<g>
	
		<ellipse fill="none" stroke="#231815" stroke-width="1.2219" stroke-miterlimit="10" cx="68.417" cy="144.465" rx="7.665" ry="2.875"/>
	
		<ellipse fill="none" stroke="#231815" stroke-width="1.2219" stroke-miterlimit="10" cx="89.127" cy="144.465" rx="7.664" ry="2.875"/>
	
		<ellipse fill="none" stroke="#231815" stroke-width="1.2219" stroke-miterlimit="10" cx="109.837" cy="144.465" rx="7.664" ry="2.875"/>
	
		<ellipse fill="none" stroke="#231815" stroke-width="1.2219" stroke-miterlimit="10" cx="130.547" cy="144.465" rx="7.664" ry="2.875"/>
</g>
</svg>
