<?xml version="1.0" encoding="utf-8"?>
<!-- Generator: Adobe Illustrator 16.0.0, SVG Export Plug-In . SVG Version: 6.00 Build 0)  -->
<!DOCTYPE svg PUBLIC "-//W3C//DTD SVG 1.1//EN" "http://www.w3.org/Graphics/SVG/1.1/DTD/svg11.dtd">
<svg version="1.1" id="春分" xmlns="http://www.w3.org/2000/svg" xmlns:xlink="http://www.w3.org/1999/xlink" x="0px" y="0px"
	 width="200.014px" height="200.012px" viewBox="0 0 200.014 200.012" enable-background="new 0 0 200.014 200.012"
	 xml:space="preserve">
<path fill="#003E32" stroke="#51163B" stroke-width="1.2618" stroke-miterlimit="10" d="M56.439,38.882
	c0,0-28.469,36.165-36.206,97.044l17.811,7.562"/>
<path fill="#003E32" stroke="#51163B" stroke-width="1.2618" stroke-miterlimit="10" d="M139.589,39.405
	c0,0,28.131,34.606,38.168,94.984l-17.502,8.574"/>
<path fill="#FBE1D3" stroke="#652517" stroke-width="1.208" stroke-miterlimit="10" d="M57.596,106.002
	c0,9.402-1.6,19.801-8.384,19.801c-6.782,0-16.179-10.398-16.179-19.801c0-9.404,5.498-17.026,12.281-17.026
	S57.596,96.598,57.596,106.002z"/>
<rect x="87.745" y="151.336" fill="#FBE1D3" stroke="#652517" stroke-width="1.2885" stroke-miterlimit="10" width="27.029" height="20.963"/>
<path fill="#FBE1D3" stroke="#652517" stroke-width="1.208" stroke-miterlimit="10" d="M141.202,106.002
	c0,9.402,1.598,19.801,8.381,19.801s16.18-10.398,16.18-19.801c0-9.404-5.498-17.026-12.279-17.026
	C146.698,88.976,141.202,96.598,141.202,106.002z"/>
<path fill="#FBE1D3" stroke="#652517" stroke-width="1.188" stroke-miterlimit="10" d="M159.436,105.979
	c8.439,26.75-26.887,51.338-60.051,51.338c-33.164,0-68.421-24.563-60.049-51.338C47.354,80.334,66.221,54.64,99.385,54.64
	C132.55,54.64,151.286,80.146,159.436,105.979z"/>
<path fill="#FBE1D3" d="M150.298,84.264c0,38.861-15.775,72.057-51.542,72.057c-35.766,0-53.441-39.629-53.441-78.489
	s38.101-33.459,53.023-33.459C107.868,44.372,150.298,45.404,150.298,84.264z"/>
<path fill="#66341A" d="M66.161,100.193c3.154,0,5.709,4.598,5.709,10.268s-2.555,10.268-5.709,10.268
	c-3.152,0-5.709-4.598-5.709-10.268c0-5.412,2.328-9.844,5.28-10.24C65.873,100.202,66.016,100.193,66.161,100.193z"/>
<ellipse fill="#66341A" cx="131.628" cy="110.486" rx="5.879" ry="10.268"/>
<path fill="none" stroke="#66341A" stroke-width="0.9377" stroke-miterlimit="10" d="M95.971,116.104c0,0,3.317-5.84,6.846,0"/>
<path fill="#003E32" stroke="#51163B" stroke-width="1.2618" stroke-miterlimit="10" d="M36.298,151.766
	c0,0-12.665-110.216,36.033-125.415c0,0,14.194-3.111,25.672,0.199c0,0,15.064-3.095,23.943-0.75
	c17.008,4.491,46.232,25.625,42.135,123.2l-26.701,11.402c0,0,4.115-62.929,2.688-66.902c0,0-1.277,5.462-1.955,5.71
	c0,0-16.684-2.482-23.746-1.158c0,0,1.502-9.767,0.527-12.58c0,0-1.805,12.083-3.082,12.58c0,0-5.563-1.076-8.941-0.415
	c0,0,3.406-10.951,3.508-13.71c0,0-5.313,14.234-7.317,14.125c0,0-12.247-1.854-20.482-1.324l1.994-15.426L75.03,96.474
	c0,0-14.33-2.771-18.591,0.605l6.066,64.881L36.298,151.766z"/>
<line fill="none" stroke="#66341A" stroke-width="0.9377" stroke-miterlimit="10" x1="87.745" y1="138.666" x2="110.244" y2="138.666"/>
<path fill="#FEF6E9" d="M84.373,160.935c0,0,0.339,0.148,0.979,0.379c3.619,1.297,16.851,5.187,32.845-0.379v9.882l35.285,10.129
	H51.355l33.219-10.007L84.373,160.935z"/>
<path fill="#FEF6E9" stroke="#652517" stroke-width="1.397" stroke-miterlimit="10" d="M89.104,168.964c0,0,10.873,4.077,23.758,0"
	/>
<polygon fill="#48BED0" points="58.796,178.34 63.348,180.832 66.829,180.54 67.301,175.484 "/>
<polygon fill="#48BED0" points="134.067,174.737 135.967,180.07 139.145,181.17 142.863,177.782 "/>
<path fill="none" stroke="#652517" stroke-width="1.397" stroke-miterlimit="10" d="M83.845,160.687c0,0,0.339,0.148,0.979,0.379
	c3.619,1.297,16.851,5.187,32.845-0.379v9.882l35.285,10.129H50.827l33.219-10.007L83.845,160.687z"/>
<path fill="#66341A" d="M59.342,97.558c8.269-9.118,13.312,2.422,13.312,2.422S67.012,95.854,59.342,97.558z"/>
<path fill="#66341A" d="M138.284,97.583c-8.269-9.118-13.312,2.422-13.312,2.422S130.614,95.88,138.284,97.583z"/>
</svg>
