<?xml version="1.0" encoding="utf-8"?>
<!-- Generator: Adobe Illustrator 16.0.0, SVG Export Plug-In . SVG Version: 6.00 Build 0)  -->
<!DOCTYPE svg PUBLIC "-//W3C//DTD SVG 1.1//EN" "http://www.w3.org/Graphics/SVG/1.1/DTD/svg11.dtd">
<svg version="1.1" id="春分" xmlns="http://www.w3.org/2000/svg" xmlns:xlink="http://www.w3.org/1999/xlink" x="0px" y="0px"
	 width="200.014px" height="200.012px" viewBox="243 0 200.014 200.012" enable-background="new 243 0 200.014 200.012"
	 xml:space="preserve">
<circle fill="#231815" cx="343.006" cy="103.584" r="84.833"/>
<g>
	<path fill="#FFFFFF" d="M324.362,108.492c-4.172,13.89-9.018,16.26-28.633,11.963c-17.338-3.798-13.101-19.392-8.93-33.282
		c4.171-13.89,18.828-28.865,32.399-19.439C328.863,74.446,328.532,94.602,324.362,108.492z"/>
	<ellipse fill="#231815" cx="314.929" cy="80.229" rx="8.372" ry="8.845"/>
</g>
<g>
	<path fill="#FFFFFF" d="M356.181,108.492c4.19,13.89,9.059,16.26,28.767,11.963c17.419-3.798,13.162-19.392,8.972-33.282
		c-4.19-13.89-18.916-28.865-32.551-19.439C351.659,74.446,351.992,94.602,356.181,108.492z"/>
	<ellipse fill="#231815" cx="365.24" cy="81.384" rx="8.411" ry="8.845"/>
</g>
<ellipse fill="#E9538B" cx="292.155" cy="140.051" rx="12.96" ry="5.194"/>
<ellipse fill="#E9538B" cx="389.367" cy="140.051" rx="12.96" ry="5.194"/>
</svg>
