<?xml version="1.0" encoding="utf-8"?>
<!-- Generator: Adobe Illustrator 16.0.0, SVG Export Plug-In . SVG Version: 6.00 Build 0)  -->
<!DOCTYPE svg PUBLIC "-//W3C//DTD SVG 1.1//EN" "http://www.w3.org/Graphics/SVG/1.1/DTD/svg11.dtd">
<svg version="1.1" id="春分" xmlns="http://www.w3.org/2000/svg" xmlns:xlink="http://www.w3.org/1999/xlink" x="0px" y="0px"
	 width="200.014px" height="200.012px" viewBox="243 0 200.014 200.012" enable-background="new 243 0 200.014 200.012"
	 xml:space="preserve">
<path fill="#F9E0A4" stroke="#A35423" stroke-width="1.0307" stroke-miterlimit="10" d="M343.779,31.846
	c23.148-2.325,51.708-0.656,63.962,36.535c0,0,15.089,52.045,9.195,84.291c0,0-0.08,8.751,4.469,12.558
	c0,0-16.641,12.735-21.514-1.886c0,0,2.002-1.509-5.471,4.85c0,0-4.267,4.264-7.839-3.718c0,0,2.077,1.914-11.528,5.515
	c0,0-3.822-1.313-6.547-2.923c0,0-0.859,1.389-8.976,2.923c0,0,0.087-2.479-1.376-5.5c0,0-0.823,5.5-5.276,5.5
	c0,0-4.264-4.067-4.453-10.658"/>
<path fill="#F9E0A4" stroke="#A35423" stroke-width="1.0307" stroke-miterlimit="10" d="M344.863,31.846
	c-23.149-2.324-51.709-0.656-63.964,36.536c0,0-15.088,52.044-9.194,84.29c0,0,0.08,8.751-4.469,12.559
	c0,0,16.641,12.734,21.514-1.886c0,0-2.002-1.509,5.472,4.849c0,0,4.266,4.264,7.838-3.717c0,0-2.077,1.912,11.528,5.513
	c0,0,3.821-1.312,6.547-2.922c0,0,0.859,1.388,8.976,2.922c0,0-0.087-2.479,1.376-5.498c0,0,0.823,5.498,5.276,5.498
	c0,0,4.264-4.065,4.453-10.656"/>
<polygon fill="#E61D37" stroke="#F5CB33" stroke-width="4.6811" stroke-miterlimit="10" points="369.687,173.452 320.235,173.452 
	302.633,153.192 388.099,153.192 "/>
<path fill="#FBE1D3" stroke="#652517" stroke-width="1.208" stroke-miterlimit="10" d="M302.413,107.996
	c0,9.402-1.6,19.801-8.384,19.801c-6.782,0-16.179-10.398-16.179-19.801c0-9.404,5.498-17.026,12.281-17.026
	S302.413,98.592,302.413,107.996z"/>
<rect x="332.005" y="147.212" fill="#FBE1D3" stroke="#652517" stroke-width="1.2885" stroke-miterlimit="10" width="27.029" height="20.963"/>
<path fill="#FBE1D3" stroke="#652517" stroke-width="1.208" stroke-miterlimit="10" d="M385.018,107.996
	c0,9.402,1.598,19.801,8.381,19.801s16.18-10.398,16.18-19.801c0-9.404-5.498-17.026-12.279-17.026
	C390.514,90.97,385.018,98.592,385.018,107.996z"/>
<path fill="#FBE1D3" stroke="#652517" stroke-width="1.188" stroke-miterlimit="10" d="M403.696,101.854
	c8.439,26.75-26.887,51.338-60.051,51.338s-68.422-24.563-60.05-51.338c8.019-25.644,26.886-51.339,60.05-51.339
	S395.546,76.022,403.696,101.854z"/>
<path fill="#66B72E" stroke="#17A250" stroke-miterlimit="10" d="M283.863,126.451c-0.624,4.098,1.727,7.472-3.243,7.099
	c-3.586-0.27-2.091-3.835-0.983-7.742c1.13-3.988,2.077-7.276,3.243-7.1C284.047,118.887,284.487,122.353,283.863,126.451z"/>
<path fill="#FBE1D3" d="M394.557,80.14c0,38.861-15.775,72.057-51.541,72.057s-53.441-39.629-53.441-78.489
	s38.102-33.459,53.023-33.459C352.128,40.248,394.557,41.28,394.557,80.14z"/>
<path fill="#66341A" d="M311.754,96.094c3.154,0,5.71,4.598,5.71,10.268s-2.556,10.268-5.71,10.268c-3.152,0-5.71-4.598-5.71-10.268
	c0-5.412,2.328-9.844,5.28-10.24C311.466,96.104,311.609,96.094,311.754,96.094z"/>
<ellipse fill="#66341A" cx="375.887" cy="106.362" rx="5.879" ry="10.268"/>
<path fill="none" stroke="#66341A" stroke-width="0.9377" stroke-miterlimit="10" d="M340.231,111.979c0,0,3.316-5.84,6.846,0"/>
<path fill="none" stroke="#66341A" stroke-width="0.9377" stroke-miterlimit="10" d="M332.005,134.542c0,0,8.663,6.204,22.499,0"/>
<path fill="#FEF6E9" stroke="#652517" stroke-width="1.3608" stroke-miterlimit="10" d="M329.032,158.807
	c0,0,15.831,12.399,33.824,0v9.377l35.285,9.609H296.013l33.22-9.494L329.032,158.807z"/>
<path fill="#F9E0A4" stroke="#A35423" stroke-width="1.0307" stroke-miterlimit="10" d="M283.493,76.458
	c0,0-10.001,51.568,12.666,79.937l10.534-75.936c0,0,7.566,7.684,25.774,13.35c0,0,7.179-12.395,16.634-15.051
	c0,0-2.423,14.48,6.479,16.238c0,0,3.852-6.317,10.68-14.645c0,0,2.913,12.887,9.468,14.645c0,0,7.089-10.117,7.089-15.884
	c0-1.771,3.01,42.32,8.677,72.108c0,0,21.009-33.588,14.332-76.812c-3.237-20.958-22.083-56.265-63.061-48.911
	C342.764,25.498,294.6,14.302,283.493,76.458z"/>
<path fill="#66341A" d="M304.989,94.39c6.38-10.527,13.529-0.159,13.529-0.159S312.194,91.256,304.989,94.39z"/>
<path fill="#66341A" d="M369.124,94.39c6.38-10.527,13.529-0.159,13.529-0.159S376.329,91.256,369.124,94.39z"/>
<polygon fill="#E61D37" stroke="#F5CB33" stroke-width="4.6811" stroke-miterlimit="10" points="315.139,167.588 323.77,176.198 
	292.549,176.821 "/>
<polygon fill="#E61D37" stroke="#F5CB33" stroke-width="4.6811" stroke-miterlimit="10" points="375.575,166.965 367.157,176.198 
	398.166,176.198 "/>
</svg>
