<?xml version="1.0" encoding="utf-8"?>
<!-- Generator: Adobe Illustrator 16.0.0, SVG Export Plug-In . SVG Version: 6.00 Build 0)  -->
<!DOCTYPE svg PUBLIC "-//W3C//DTD SVG 1.1//EN" "http://www.w3.org/Graphics/SVG/1.1/DTD/svg11.dtd">
<svg version="1.1" id="春分" xmlns="http://www.w3.org/2000/svg" xmlns:xlink="http://www.w3.org/1999/xlink" x="0px" y="0px"
	 width="200.014px" height="200.012px" viewBox="0 235.488 200.014 200.012" enable-background="new 0 235.488 200.014 200.012"
	 xml:space="preserve">
<g>
	<path fill="#F08B55" stroke="#A35423" stroke-width="1.1251" stroke-miterlimit="10" d="M98.423,266.947
		c0,0-1.993-22.767-6.216-25.41c0,0-4.473,10.345,1.063,21.555c0,0-6.895-10.712-12.777-10.72c0,0,4.133,9.36,9.377,14.575"/>
	<path fill="#F08B55" stroke="#A35423" stroke-width="1.1251" stroke-miterlimit="10" d="M97.862,263.256
		c0,0-1.698-11.255,5.411-17.873c0,0,0.521,17.578-4.211,20.699"/>
</g>
<path fill="#FBE1D3" stroke="#652517" stroke-width="1.208" stroke-miterlimit="10" d="M60.489,345.866
	c0,9.402-1.6,19.801-8.384,19.801c-6.782,0-16.179-10.398-16.179-19.801c0-9.404,5.498-17.025,12.281-17.025
	S60.489,336.462,60.489,345.866z"/>
<rect x="90.642" y="383.783" fill="#FBE1D3" stroke="#652517" stroke-width="1.3522" stroke-miterlimit="10" width="27.029" height="23.084"/>
<path fill="#FBE1D3" stroke="#652517" stroke-width="1.208" stroke-miterlimit="10" d="M144.094,345.866
	c0,9.402,1.598,19.801,8.381,19.801s16.18-10.398,16.18-19.801c0-9.404-5.498-17.025-12.279-17.025
	C149.591,328.841,144.094,336.462,144.094,345.866z"/>
<path fill="#FBE1D3" stroke="#652517" stroke-width="1.188" stroke-miterlimit="10" d="M162.333,338.426
	c8.439,26.75-26.887,51.338-60.051,51.338c-33.165,0-68.422-24.563-60.05-51.338c8.019-25.644,26.885-51.338,60.05-51.338
	C135.446,287.088,154.182,312.594,162.333,338.426z"/>
<path fill="#FBE1D3" d="M153.979,314.738c0,38.861-15.775,72.057-51.541,72.057c-35.766,0-53.441-39.629-53.441-78.488
	c0-38.861,38.101-33.46,53.023-33.46C111.55,274.847,153.979,275.879,153.979,314.738z"/>
<path fill="#66341A" d="M69.057,332.641c3.154,0,5.709,4.598,5.709,10.268s-2.555,10.268-5.709,10.268
	c-3.152,0-5.709-4.598-5.709-10.268c0-5.412,2.328-9.844,5.28-10.239C68.77,332.65,68.913,332.641,69.057,332.641z"/>
<ellipse fill="#66341A" cx="134.524" cy="342.934" rx="5.879" ry="10.268"/>
<path fill="none" stroke="#66341A" stroke-width="0.9377" stroke-miterlimit="10" d="M98.867,348.551c0,0,3.317-5.84,6.846,0"/>
<path fill="#FEF6E9" d="M87.27,394.396c0,0,0.339,0.163,0.979,0.417c3.619,1.428,12.84,13.023,32.845-0.417v10.88l35.285,11.154
	H54.252l33.219-11.019L87.27,394.396z"/>
<path fill="none" stroke="#652517" stroke-width="1.466" stroke-miterlimit="10" d="M86.741,394.081c0,0,16.49,15.091,33.825,0
	v10.881l35.285,11.153H53.723l33.219-11.018L86.741,394.081z"/>
<path fill="#66341A" d="M62.025,328.104c6.182-10.645,13.524-0.413,13.524-0.413S69.17,324.836,62.025,328.104z"/>
<path fill="#66341A" d="M140.192,326.56c-6.178-10.646-13.523-0.417-13.523-0.417S133.049,323.289,140.192,326.56z"/>
<path fill="#F08B55" stroke="#A35423" stroke-width="1.0413" stroke-miterlimit="10" d="M37.643,317.969
	c0,0-3.804,20.916,4.206,35.232c2.015-21.994,15.297-26.962,7.148-39.665c18.117,5.962,101.589-11.69,101.761,0.479
	c0.246,17.393,17.376,28.119,11.818,39.186c-1.826,3.636,2.887,3.262,4.237-20.561c1.2-21.172-4.355-73.631-65.654-69.938
	C101.159,262.703,40.794,256.155,37.643,317.969z"/>
<path fill="none" stroke="#66341A" stroke-width="0.9377" stroke-miterlimit="10" d="M86.232,369.012c0,0,13.091,9.375,33.999,0"/>
<path fill="#F08B55" stroke="#A35423" stroke-width="1.0307" stroke-miterlimit="10" d="M91.372,308.197
	c0,0-3.86,13.635-0.986,17.442c0,0,7.747-5.948,6.75-16.818c0,0,2.405,11.072,7.724,13.585c0,0-0.391-8.868-3.269-15.063"/>
<g>
	<path opacity="0.1" fill="#96D3DC" d="M53.19,335.794c2.363-6.434,32.984-9.691,37.374,0c4.39,9.691,0.07,25.066-17.377,26.187
		C47.591,364.81,50.827,342.228,53.19,335.794z"/>
	<path fill="none" stroke="#66341A" stroke-width="4.0933" stroke-miterlimit="10" d="M53.19,335.794
		c2.363-6.434,32.984-9.691,37.374,0c4.39,9.691,0.07,25.066-17.377,26.187C47.591,364.81,50.827,342.228,53.19,335.794z"/>
	<path fill="none" stroke="#66341A" stroke-width="3.7833" stroke-miterlimit="10" d="M51.053,342.638c0,0,2.325-0.153-14.604-3.153
		"/>
</g>
<g>
	<path opacity="0.1" fill="#96D3DC" d="M149.954,333.623c-2.833-6.25-33.406-7.343-37.01,2.631
		c-3.604,9.974,1.852,25.003,19.215,24.893C157.721,362.166,152.787,339.873,149.954,333.623z"/>
	<path fill="none" stroke="#66341A" stroke-width="4.0789" stroke-miterlimit="10" d="M149.954,333.623
		c-2.833-6.25-33.406-7.343-37.01,2.631c-3.604,9.974,1.852,25.003,19.215,24.893C157.721,362.166,152.787,339.873,149.954,333.623z
		"/>
	<path fill="none" stroke="#66341A" stroke-width="3.7699" stroke-miterlimit="10" d="M152.593,340.298
		c0,0-2.313,0.011,14.221-4.173"/>
</g>
<path fill="none" stroke="#66341A" stroke-width="4.0933" stroke-miterlimit="10" d="M93.623,345.011
	c-0.992,0.308,5.202-1.374,8.667-1.377s10.55,1.956,10.55,1.956"/>
<polygon fill="#EB676B" points="77.59,408.989 131.841,409.317 150.758,415.321 58.465,415.321 "/>
<path fill="#EB676B" d="M87.569,401.939c0,0,14.767,12.348,32.292-0.222v-6.081c0,0-16.044,13.006-32.574-0.311L87.569,401.939z"/>
</svg>
