<?xml version="1.0" encoding="utf-8"?>
<!-- Generator: Adobe Illustrator 16.0.0, SVG Export Plug-In . SVG Version: 6.00 Build 0)  -->
<!DOCTYPE svg PUBLIC "-//W3C//DTD SVG 1.1//EN" "http://www.w3.org/Graphics/SVG/1.1/DTD/svg11.dtd">
<svg version="1.1" id="春分" xmlns="http://www.w3.org/2000/svg" xmlns:xlink="http://www.w3.org/1999/xlink" x="0px" y="0px"
	 width="200.014px" height="200.012px" viewBox="243 235.488 200.014 200.012" enable-background="new 243 235.488 200.014 200.012"
	 xml:space="preserve">
<path fill="#231815" d="M407.135,335.058c0,53.083,5.185,94.782-65.335,96.115c-67.101,1.269-65.335-43.032-65.335-96.115
	c0-53.082,29.251-96.113,65.335-96.113S407.135,281.976,407.135,335.058z"/>
<ellipse fill="#F9F1EF" cx="341.841" cy="301.674" rx="42.833" ry="54.833"/>
<ellipse fill="#140504" cx="319.798" cy="284.381" rx="9.75" ry="5.875"/>
<ellipse fill="#140504" cx="364.673" cy="284.381" rx="9.75" ry="5.875"/>
<ellipse fill="#140504" cx="341.84" cy="321.729" rx="12.458" ry="4.473"/>
<path fill="#E73349" d="M321.757,259.756c0,0-6.721,10.874-3.596,15.833h4.104C322.264,275.589,320.311,262.943,321.757,259.756z"/>
<path fill="#E73349" d="M362.714,259.756c0,0,6.721,10.874,3.596,15.833h-4.104C362.206,275.589,364.159,262.943,362.714,259.756z"
	/>
<path fill="#E73349" d="M321.757,311.088c0,0-6.721-10.874-3.596-15.833h4.104C322.264,295.255,320.311,307.9,321.757,311.088z"/>
<path fill="#E73349" d="M362.714,311.088c0,0,6.721-10.874,3.596-15.833h-4.104C362.206,295.255,364.159,307.9,362.714,311.088z"/>
</svg>
