<?xml version="1.0" encoding="utf-8"?>
<!-- Generator: Adobe Illustrator 16.0.0, SVG Export Plug-In . SVG Version: 6.00 Build 0)  -->
<!DOCTYPE svg PUBLIC "-//W3C//DTD SVG 1.1//EN" "http://www.w3.org/Graphics/SVG/1.1/DTD/svg11.dtd">
<svg version="1.1" id="春分" xmlns="http://www.w3.org/2000/svg" xmlns:xlink="http://www.w3.org/1999/xlink" x="0px" y="0px"
	 width="200.014px" height="200.012px" viewBox="243 0 200.014 200.012" enable-background="new 243 0 200.014 200.012"
	 xml:space="preserve">
<path fill="#EADFE5" stroke="#8D2B22" stroke-miterlimit="10" d="M282.437,94.193c0,0-11.813,44.245,0.884,54.975
	c0,0-1.337-11.475,6.947-20.582s4.416-37.631,4.416-37.631L282.437,94.193z"/>
<path fill="#EADFE5" stroke="#8D2B22" stroke-miterlimit="10" d="M399.642,90.474c0,0,15.629,38.386-0.037,59.72
	c0,0-3.898-18.332-11.403-28.092c-7.506-9.758,5.462-33.968,5.462-33.968L399.642,90.474z"/>
<path fill="#EADFE5" stroke="#8D2B22" stroke-miterlimit="10" d="M289.181,125.328c0,0,1.896,29.316-11.781,33.166
	c0,0,11.502-0.502,15.543-4.951c0,0,7.57,4.199,4.873,7.625c0,0,14.113-5.418,16.784-12.574c0,0,5.078,4.166,3.73,8.416
	c0,0,6.958,0.393,8.867-4.678c0,0-28.347-10.404-24.202-29.072L289.181,125.328z"/>
<path fill="#EADFE5" stroke="#8D2B22" stroke-miterlimit="10" d="M393.621,125.996c0,0-1.896,29.316,11.781,33.166
	c0,0-11.502-0.502-15.543-4.951c0,0-7.57,4.199-4.873,7.625c0,0-14.113-5.418-16.784-12.574c0,0-5.078,4.166-3.73,8.416
	c0,0-6.958,0.393-8.867-4.678c0,0,28.347-10.404,24.202-29.072L393.621,125.996z"/>
<path fill="#EAC58B" stroke="#631015" stroke-width="1.1697" stroke-miterlimit="10" d="M390.191,34.784
	c14.42,27.558-21.214,27.558-47.383,27.558s-56.311-13.561-47.383-27.558c5.381-8.437,21.214-19.685,47.383-19.685
	S385.458,25.738,390.191,34.784z"/>
<path fill="#DD436F" stroke="#661116" stroke-width="0.5248" stroke-miterlimit="10" d="M391.52,40.648
	c13.867,19.151-24.379,19.268-49.543,19.268c-25.166,0-55.291-9.355-46.705-19.083c5.175-5.863,21.539-13.748,46.705-13.748
	C367.141,27.085,386.969,34.361,391.52,40.648z"/>
<path fill="#EAC58B" stroke="#631015" stroke-width="1.1246" stroke-miterlimit="10" d="M438.73,75.578
	c-42.412,35.735-41.193-2.971-94.668-2.971s-52.497,42.206-96.922,0.911c-10.035-9.328,43.093-39.576,96.567-39.576
	C397.183,33.941,449.285,66.685,438.73,75.578z"/>
<rect x="331.729" y="151.809" fill="#FBE1D3" stroke="#893327" stroke-miterlimit="10" width="22.375" height="15.25"/>
<path fill="#FBE1D3" stroke="#893327" stroke-miterlimit="10" d="M381.78,114.279c0,7.783,1.324,16.391,6.939,16.391
	s13.395-8.607,13.395-16.391c0-7.785-4.553-14.094-10.168-14.094S381.78,106.494,381.78,114.279z"/>
<path fill="#FBE1D3" stroke="#893327" stroke-miterlimit="10" d="M301.94,114.279c0,7.783-1.325,16.391-6.939,16.391
	c-5.615,0-13.395-8.607-13.395-16.391c0-7.785,4.553-14.094,10.168-14.094C297.388,100.185,301.94,106.494,301.94,114.279z"/>
<path fill="#FBE1D3" stroke="#893327" stroke-miterlimit="10" d="M394.475,114.26c7.221,22.145-23.01,42.5-51.393,42.5
	s-58.557-20.334-51.393-42.5c6.862-21.228,23.01-42.5,51.393-42.5S387.501,92.875,394.475,114.26z"/>
<path fill="#FBE1D3" d="M393.747,98.51c0,32.171-22.17,57.423-50.33,57.423c-28.158,0-51.644-25.252-51.644-57.423
	c0-32.17,39.567-35.25,51.317-35.25C350.591,63.26,393.747,66.34,393.747,98.51z"/>
<path fill="#EADFE5" stroke="#8D2B22" stroke-miterlimit="10" d="M285.862,96.094c0,0-5.641,6.045-20.042,5.346
	c0,0,11.885-2.882,22.325-26.088c0,0,6.126-47.205,78.949-31.539c13.844,5,23.111,5.547,35.189,40.11c0,0,7.385,15.972,15.51,15.714
	c0,0-9.147,1.921-18.522-1.611c0,0-5.166,45.358-12.166,53.782c0,0-6.78-45.25-14.597-57.624c0,0-0.297-4.45-4.172,11.388
	c0,0-20.482-3.713-15.982-11.98c0,0-6.852,14.5-1.769,18.092c0,0-27.794,1.477-32.138-18.092c0,0-6.908,3.914-6.219,10.936
	c0,0-6.047-0.979-6.25-7.543c0,0-12.846,44.945-3.75,60.75C302.229,157.734,282.555,133.432,285.862,96.094z"/>
<g>
	<ellipse opacity="0.5" fill="#F08C69" cx="309.604" cy="130.813" rx="7.844" ry="2.947"/>
	<path fill="none" stroke="#66341A" stroke-width="0.2" stroke-miterlimit="10" d="M306.93,129.697c0,0-0.625,0.826-0.75,1.947"/>
	<path fill="none" stroke="#66341A" stroke-width="0.2" stroke-miterlimit="10" d="M309.385,129.838c0,0-0.625,0.828-0.75,1.949"/>
</g>
<g>
	<ellipse opacity="0.5" fill="#F08C69" cx="373.937" cy="130.813" rx="7.843" ry="2.947"/>
	<path fill="none" stroke="#66341A" stroke-width="0.2" stroke-miterlimit="10" d="M376.61,129.697c0,0,0.625,0.826,0.75,1.947"/>
	<path fill="none" stroke="#66341A" stroke-width="0.2" stroke-miterlimit="10" d="M374.155,129.838c0,0,0.625,0.828,0.75,1.949"/>
</g>
<g>
	<ellipse fill="#8D2B22" cx="311.527" cy="114.805" rx="3.875" ry="8.5"/>
	<path fill="#8D2B22" d="M309.067,103.549c0,0-0.859,2.594,1.055,4.047l1.107-0.178
		C311.229,107.418,308.815,105.621,309.067,103.549z"/>
</g>
<g>
	<ellipse fill="#8D2B22" cx="371.212" cy="114.805" rx="3.875" ry="8.5"/>
	<path fill="#8D2B22" d="M373.673,103.549c0,0,0.859,2.594-1.057,4.047l-1.107-0.178
		C371.509,107.418,373.925,105.621,373.673,103.549z"/>
</g>
<path fill="none" stroke="#8D2B22" stroke-miterlimit="10" d="M329.044,139.279c0,0,12.869,6.604,28.122,0"/>
<path fill="none" stroke="#8D2B22" stroke-miterlimit="10" d="M345.678,126.518c-3.427-7.221-5.178,0-5.178,0"/>
<g>
	<path fill="#89B8A4" stroke="#587551" stroke-miterlimit="10" d="M331.82,163.626c0,0,8.667,4.441,22.375,0
		c0,0,11.99,5.65,23.256,16.15c0,0-10.965,9.709-30.089,10.375c-0.74,0.025-3.415-8.088-4.167-8.084
		c-0.764,0.006-3.697,7.402-4.494,7.441c-10.157,0.49-20.6-4.084-30.631-10.066C308.07,179.442,325.695,165.442,331.82,163.626z"/>
	
		<line fill="none" stroke="#587551" stroke-width="0.9445" stroke-miterlimit="10" x1="342.851" y1="165.595" x2="342.851" y2="172.337"/>
	<circle fill="#587551" cx="342.851" cy="174.858" r="2.521"/>
	<circle fill="#587551" cx="343.008" cy="179.899" r="2.521"/>
</g>
<path fill="none" stroke="#8D2B22" stroke-width="1.1983" stroke-miterlimit="10" d="M306.555,103.49c0,0,6.924-7.335,12.693,0"/>
<path fill="none" stroke="#8D2B22" stroke-width="1.1662" stroke-miterlimit="10" d="M365.597,103.49c0,0,7.079-7.334,12.979,0"/>
</svg>
